<svg xmlns="http://www.w3.org/2000/svg" xmlns:xlink="http://www.w3.org/1999/xlink" width="500" zoomAndPan="magnify" viewBox="0 0 375 374.999991" height="500" preserveAspectRatio="xMidYMid meet" version="1.0"><defs><g/><clipPath id="13923e7675"><path d="M 106.621094 172.429688 L 136.621094 172.429688 L 136.621094 202.429688 L 106.621094 202.429688 Z M 106.621094 172.429688 " clip-rule="nonzero"/></clipPath><clipPath id="6610fb0400"><path d="M 112.042969 177.851562 L 131.542969 177.851562 L 131.542969 197.351562 L 112.042969 197.351562 Z M 112.042969 177.851562 " clip-rule="nonzero"/></clipPath><clipPath id="d4f65b9f97"><path d="M 260.246094 175.734375 L 287.246094 175.734375 L 287.246094 202.734375 L 260.246094 202.734375 Z M 260.246094 175.734375 " clip-rule="nonzero"/></clipPath><clipPath id="ed75596837"><path d="M 50.679688 125.574219 L 72.429688 125.574219 L 72.429688 147.324219 L 50.679688 147.324219 Z M 50.679688 125.574219 " clip-rule="nonzero"/></clipPath><clipPath id="d2a0d01179"><path d="M 54.246094 129.144531 L 68.496094 129.144531 L 68.496094 143.394531 L 54.246094 143.394531 Z M 54.246094 129.144531 " clip-rule="nonzero"/></clipPath><clipPath id="780bc3d758"><path d="M 284.738281 167.390625 L 328.238281 167.390625 L 328.238281 210.890625 L 284.738281 210.890625 Z M 284.738281 167.390625 " clip-rule="nonzero"/></clipPath></defs><g fill="#ffffff" fill-opacity="1"><g transform="translate(1.421665, 218.057132)"><g><path d="M 0.890625 -73.234375 L 0.890625 -91.53125 L 65.234375 -91.53125 L 65.234375 -73.234375 L 43.5 -73.234375 L 43.5 0 L 22.640625 0 L 22.640625 -73.234375 Z M 0.890625 -73.234375 "/></g></g></g><g fill="#ffffff" fill-opacity="1"><g transform="translate(54.789008, 218.057132)"><g><path d="M 6.65625 0 L 6.65625 -95.421875 L 26.296875 -95.421875 L 26.296875 -50.921875 L 26.515625 -50.921875 C 31.617188 -56.023438 37.054688 -58.578125 42.828125 -58.578125 C 45.640625 -58.578125 48.429688 -58.207031 51.203125 -57.46875 C 53.972656 -56.726562 56.632812 -55.582031 59.1875 -54.03125 C 61.738281 -52.476562 63.8125 -50.273438 65.40625 -47.421875 C 67 -44.578125 67.796875 -41.269531 67.796875 -37.5 L 67.796875 0 L 48.15625 0 L 48.15625 -32.171875 C 48.15625 -35.128906 47.210938 -37.71875 45.328125 -39.9375 C 43.441406 -42.15625 40.984375 -43.265625 37.953125 -43.265625 C 34.992188 -43.265625 32.3125 -42.117188 29.90625 -39.828125 C 27.5 -37.535156 26.296875 -34.984375 26.296875 -32.171875 L 26.296875 0 Z M 6.65625 0 "/></g></g></g><g fill="#ffffff" fill-opacity="1"><g transform="translate(115.368259, 218.057132)"><g><path d="M 64.234375 -25.734375 L 22.96875 -25.734375 C 22.96875 -21.742188 24.257812 -18.785156 26.84375 -16.859375 C 29.4375 -14.941406 32.25 -13.984375 35.28125 -13.984375 C 38.457031 -13.984375 40.972656 -14.40625 42.828125 -15.25 C 44.679688 -16.101562 46.789062 -17.785156 49.15625 -20.296875 L 63.359375 -13.203125 C 57.441406 -3.285156 47.601562 1.671875 33.84375 1.671875 C 25.257812 1.671875 17.894531 -1.269531 11.75 -7.15625 C 5.613281 -13.039062 2.546875 -20.125 2.546875 -28.40625 C 2.546875 -36.6875 5.613281 -43.785156 11.75 -49.703125 C 17.894531 -55.617188 25.257812 -58.578125 33.84375 -58.578125 C 42.863281 -58.578125 50.203125 -55.96875 55.859375 -50.75 C 61.523438 -45.539062 64.359375 -38.09375 64.359375 -28.40625 C 64.359375 -27.070312 64.316406 -26.179688 64.234375 -25.734375 Z M 23.515625 -36.609375 L 45.15625 -36.609375 C 44.71875 -39.566406 43.550781 -41.84375 41.65625 -43.4375 C 39.769531 -45.03125 37.347656 -45.828125 34.390625 -45.828125 C 31.140625 -45.828125 28.550781 -44.972656 26.625 -43.265625 C 24.707031 -41.566406 23.671875 -39.347656 23.515625 -36.609375 Z M 23.515625 -36.609375 "/></g></g></g><g fill="#ffffff" fill-opacity="1"><g transform="translate(169.51228, 218.057132)"><g/></g></g><g fill="#ffffff" fill-opacity="1"><g transform="translate(187.041979, 218.057132)"><g><path d="M 59.578125 -91.53125 L 59.578125 -73.234375 L 27.515625 -73.234375 L 27.515625 -55.03125 L 57.140625 -55.03125 L 57.140625 -36.71875 L 27.515625 -36.71875 L 27.515625 0 L 6.65625 0 L 6.65625 -91.53125 Z M 59.578125 -91.53125 "/></g></g></g><g fill="#ffffff" fill-opacity="1"><g transform="translate(237.191696, 218.057132)"><g><path d="M 10.53125 -7.03125 C 5.207031 -12.84375 2.546875 -19.960938 2.546875 -28.390625 C 2.546875 -36.828125 5.207031 -43.96875 10.53125 -49.8125 C 15.863281 -55.65625 22.632812 -58.578125 30.84375 -58.578125 C 38.382812 -58.578125 44.597656 -56.210938 49.484375 -51.484375 L 49.484375 -56.921875 L 69.125 -56.921875 L 69.125 0 L 49.703125 0 L 49.703125 -6.4375 L 49.484375 -6.4375 C 44.597656 -1.03125 38.382812 1.671875 30.84375 1.671875 C 22.632812 1.671875 15.863281 -1.226562 10.53125 -7.03125 Z M 27.234375 -38.046875 C 24.679688 -35.535156 23.40625 -32.320312 23.40625 -28.40625 C 23.40625 -24.488281 24.625 -21.289062 27.0625 -18.8125 C 29.507812 -16.332031 32.726562 -15.09375 36.71875 -15.09375 C 40.570312 -15.09375 43.734375 -16.347656 46.203125 -18.859375 C 48.679688 -21.378906 49.921875 -24.5625 49.921875 -28.40625 C 49.921875 -32.320312 48.644531 -35.535156 46.09375 -38.046875 C 43.539062 -40.566406 40.414062 -41.828125 36.71875 -41.828125 C 32.945312 -41.828125 29.785156 -40.566406 27.234375 -38.046875 Z M 27.234375 -38.046875 "/></g></g></g><g fill="#ffffff" fill-opacity="1"><g transform="translate(300.211914, 218.057132)"><g><path d="M 6.65625 0 L 6.65625 -56.921875 L 26.296875 -56.921875 L 26.296875 -50.921875 L 26.515625 -50.921875 C 31.617188 -56.023438 37.054688 -58.578125 42.828125 -58.578125 C 45.640625 -58.578125 48.429688 -58.207031 51.203125 -57.46875 C 53.972656 -56.726562 56.632812 -55.582031 59.1875 -54.03125 C 61.738281 -52.476562 63.8125 -50.273438 65.40625 -47.421875 C 67 -44.578125 67.796875 -41.269531 67.796875 -37.5 L 67.796875 0 L 48.15625 0 L 48.15625 -32.171875 C 48.15625 -35.128906 47.210938 -37.71875 45.328125 -39.9375 C 43.441406 -42.15625 40.984375 -43.265625 37.953125 -43.265625 C 34.992188 -43.265625 32.3125 -42.117188 29.90625 -39.828125 C 27.5 -37.535156 26.296875 -34.984375 26.296875 -32.171875 L 26.296875 0 Z M 6.65625 0 "/></g></g></g><g clip-path="url(#13923e7675)"><path fill="#242424" d="M 121.6875 202.558594 C 121.6875 194.269531 114.910156 187.496094 106.621094 187.496094 C 114.910156 187.496094 121.6875 180.71875 121.6875 172.429688 C 121.6875 180.71875 128.460938 187.496094 136.75 187.496094 C 128.460938 187.496094 121.6875 194.269531 121.6875 202.558594 Z M 121.6875 202.558594 " fill-opacity="1" fill-rule="nonzero"/></g><g clip-path="url(#6610fb0400)"><path fill="#ffde59" d="M 121.6875 197.140625 C 121.6875 191.835938 117.351562 187.496094 112.042969 187.496094 C 117.351562 187.496094 121.6875 183.160156 121.6875 177.851562 C 121.6875 183.160156 126.027344 187.496094 131.332031 187.496094 C 126.027344 187.496094 121.6875 191.835938 121.6875 197.140625 Z M 121.6875 197.140625 " fill-opacity="1" fill-rule="nonzero"/></g><g clip-path="url(#d4f65b9f97)"><path fill="#ffde59" d="M 273.660156 202.558594 C 273.660156 195.179688 267.625 189.144531 260.246094 189.144531 C 267.625 189.144531 273.660156 183.113281 273.660156 175.734375 C 273.660156 183.113281 279.691406 189.144531 287.070312 189.144531 C 279.691406 189.144531 273.660156 195.179688 273.660156 202.558594 Z M 273.660156 202.558594 " fill-opacity="1" fill-rule="nonzero"/></g><path stroke-linecap="butt" transform="matrix(0.797886, 0, 0, 0.797886, 0.0000045, 218.332104)" fill="none" stroke-linejoin="miter" d="M 97.954134 33.00215 L 93.185674 33.00215 L 98.017778 10.158587 L 110.732038 10.158587 L 109.889969 14.124144 L 101.95396 14.124144 L 100.720232 20.013729 L 108.107916 20.013729 L 107.236473 23.969494 L 99.843893 23.969494 Z M 115.686535 33.310583 C 114.154166 33.310583 112.949812 32.757363 112.068577 31.646028 C 111.192238 30.539589 110.751621 28.982741 110.751621 26.985275 C 110.751621 24.924165 111.123697 22.956074 111.872747 21.085898 C 112.626692 19.215722 113.610738 17.766581 114.829779 16.743369 C 116.048821 15.715262 117.38536 15.201208 118.844293 15.201208 C 119.852817 15.201208 120.724261 15.421517 121.458623 15.857239 C 122.192985 16.297856 122.765788 16.934303 123.172135 17.766581 L 123.294529 17.766581 L 124.185555 15.529223 L 127.813305 15.529223 L 124.092536 33.00215 L 120.513743 33.00215 L 120.734052 30.735419 L 120.670407 30.735419 C 119.275119 32.453827 117.61546 33.310583 115.686535 33.310583 Z M 117.532232 29.516377 C 118.251908 29.516377 118.942208 29.168779 119.60803 28.468687 C 120.273852 27.768595 120.812384 26.823716 121.218731 25.634049 C 121.625078 24.439486 121.825804 23.088259 121.825804 21.580369 C 121.825804 20.836215 121.629974 20.224246 121.228523 19.744463 C 120.827071 19.259784 120.29833 19.014997 119.6423 19.014997 C 118.932417 19.014997 118.256803 19.391969 117.61546 20.141019 C 116.974117 20.890068 116.464959 21.87901 116.087987 23.107842 C 115.706118 24.336675 115.515184 25.555717 115.515184 26.764967 C 115.515184 27.680472 115.691431 28.370772 116.039029 28.826077 C 116.386627 29.286277 116.885994 29.516377 117.532232 29.516377 Z M 143.626573 33.00215 L 138.921758 33.00215 L 141.061201 22.794515 C 141.227656 22.089527 141.310884 21.467767 141.310884 20.939026 C 141.310884 19.65634 140.747873 19.014997 139.626746 19.014997 C 138.667179 19.014997 137.795736 19.607382 137.017312 20.797049 C 136.233992 21.986716 135.622024 23.641479 135.171615 25.766234 L 133.639246 33.00215 L 128.939327 33.00215 L 132.640513 15.529223 L 136.233992 15.529223 L 135.905977 18.765313 L 135.998996 18.765313 C 137.521574 16.390875 139.372167 15.201208 141.54588 15.201208 C 142.98523 15.201208 144.096565 15.63693 144.88478 16.508373 C 145.6681 17.379816 146.064656 18.618441 146.064656 20.234038 C 146.064656 20.992879 145.942262 21.932863 145.70237 23.049093 Z M 162.34302 33.310583 C 160.810651 33.310583 159.606296 32.757363 158.725062 31.646028 C 157.848723 30.539589 157.408105 28.982741 157.408105 26.985275 C 157.408105 24.924165 157.780182 22.956074 158.529232 21.085898 C 159.283177 19.215722 160.267223 17.766581 161.486264 16.743369 C 162.705305 15.715262 164.041845 15.201208 165.500778 15.201208 C 166.509302 15.201208 167.380745 15.421517 168.115108 15.857239 C 168.84947 16.297856 169.422273 16.934303 169.82862 17.766581 L 169.951013 17.766581 L 170.84204 15.529223 L 174.469789 15.529223 L 170.74902 33.00215 L 167.170228 33.00215 L 167.390537 30.735419 L 167.326892 30.735419 C 165.931604 32.453827 164.271945 33.310583 162.34302 33.310583 Z M 164.188717 29.516377 C 164.908392 29.516377 165.598693 29.168779 166.264515 28.468687 C 166.930336 27.768595 167.468869 26.823716 167.875216 25.634049 C 168.281563 24.439486 168.482289 23.088259 168.482289 21.580369 C 168.482289 20.836215 168.281563 20.224246 167.885007 19.744463 C 167.483556 19.259784 166.954815 19.014997 166.298785 19.014997 C 165.588901 19.014997 164.913288 19.391969 164.271945 20.141019 C 163.630602 20.890068 163.121444 21.87901 162.744471 23.107842 C 162.362603 24.336675 162.171669 25.555717 162.171669 26.764967 C 162.171669 27.680472 162.347916 28.370772 162.695514 28.826077 C 163.043112 29.286277 163.542478 29.516377 164.188717 29.516377 Z M 193.548522 15.563494 L 193.000198 18.158241 L 190.283058 18.794688 C 190.449513 19.338116 190.532741 19.95498 190.532741 20.640385 C 190.532741 22.672121 189.901189 24.277926 188.642982 25.462698 C 187.379879 26.642573 185.666367 27.234959 183.502446 27.234959 C 182.885581 27.234959 182.371528 27.181105 181.955389 27.078295 C 181.07905 27.357352 180.638433 27.763699 180.638433 28.297336 C 180.638433 28.64983 180.795097 28.904409 181.108425 29.061073 C 181.421753 29.217737 181.886849 29.34013 182.498817 29.423358 L 184.638259 29.702416 C 186.337084 29.922725 187.575709 30.363342 188.349237 31.024268 C 189.127661 31.685194 189.514425 32.639865 189.514425 33.888281 C 189.514425 36.086472 188.701731 37.77061 187.076342 38.935798 C 185.450954 40.105882 183.130369 40.688476 180.109692 40.688476 C 177.940875 40.688476 176.251842 40.29192 175.037696 39.5086 C 173.823551 38.720385 173.216478 37.638424 173.216478 36.267615 C 173.216478 35.205237 173.573867 34.289732 174.288647 33.5211 C 175.003426 32.757363 176.119657 32.125811 177.642235 31.626445 C 176.868706 31.13687 176.481942 30.441674 176.481942 29.545752 C 176.481942 28.806494 176.716938 28.170047 177.182034 27.631514 C 177.642235 27.097878 178.405971 26.583824 179.468349 26.094249 C 178.792735 25.585091 178.293369 24.997601 177.97025 24.341571 C 177.64713 23.685541 177.485571 22.892429 177.485571 21.952446 C 177.485571 19.881544 178.136705 18.236573 179.44387 17.022427 C 180.751035 15.808281 182.533087 15.201208 184.780236 15.201208 C 185.646784 15.201208 186.508435 15.323602 187.374983 15.563494 Z M 180.716765 33.09517 C 179.615221 33.237146 178.778048 33.535787 178.210141 33.986196 C 177.642235 34.431709 177.358281 34.999616 177.358281 35.689916 C 177.358281 36.884479 178.371701 37.486656 180.38875 37.486656 C 181.965181 37.486656 183.149952 37.25166 183.952855 36.781668 C 184.755757 36.311677 185.157209 35.65075 185.157209 34.79889 C 185.157209 34.392543 184.985858 34.079215 184.648051 33.858906 C 184.310244 33.638598 183.595465 33.457455 182.498817 33.310583 Z M 184.608885 18.187615 C 183.805982 18.187615 183.159743 18.584171 182.665273 19.382178 C 182.170802 20.180185 181.921119 21.178917 181.921119 22.37348 C 181.921119 23.617 182.459651 24.233865 183.53182 24.233865 C 184.310244 24.233865 184.946692 23.837309 185.431371 23.039302 C 185.91605 22.241295 186.155941 21.232771 186.155941 20.013729 C 186.155941 18.794688 185.641888 18.187615 184.608885 18.187615 Z M 203.202938 18.593962 C 202.287433 18.593962 201.420886 19.010101 200.608192 19.842378 C 199.795497 20.674655 199.266756 21.692971 199.017073 22.892429 L 199.717165 22.892429 C 201.332762 22.892429 202.59097 22.637851 203.491787 22.133588 C 204.392605 21.629326 204.843014 20.943922 204.843014 20.077374 C 204.843014 19.088433 204.29469 18.593962 203.202938 18.593962 Z M 200.642462 33.310583 C 198.454062 33.310583 196.755237 32.723093 195.545987 31.548113 C 194.336737 30.368238 193.73456 28.708579 193.73456 26.564241 C 193.73456 24.405216 194.165386 22.442021 195.022142 20.664864 C 195.883794 18.887707 197.048982 17.531585 198.517707 16.601392 C 199.986431 15.6712 201.64609 15.201208 203.501579 15.201208 C 205.34238 15.201208 206.781731 15.627138 207.814734 16.478999 C 208.842841 17.325963 209.36179 18.491151 209.36179 19.969668 C 209.36179 21.918176 208.490347 23.42117 206.752356 24.478652 C 205.00947 25.536134 202.527325 26.064875 199.296131 26.064875 L 198.498124 26.064875 L 198.468749 26.39289 L 198.468749 26.701322 C 198.468749 27.651097 198.738016 28.400147 199.271652 28.943575 C 199.810184 29.491899 200.578817 29.766061 201.57755 29.766061 C 202.483263 29.766061 203.305749 29.668146 204.045007 29.46742 C 204.784265 29.27159 205.680187 28.923992 206.732773 28.41973 L 206.732773 31.969148 C 204.940929 32.86507 202.909193 33.310583 200.642462 33.310583 Z M 225.419846 33.00215 L 220.719927 33.00215 L 222.859369 22.794515 C 223.025825 22.089527 223.109052 21.467767 223.109052 20.939026 C 223.109052 19.65634 222.546041 19.014997 221.420019 19.014997 C 220.465348 19.014997 219.593905 19.607382 218.810585 20.797049 C 218.032161 21.986716 217.415297 23.641479 216.969784 25.766234 L 215.437414 33.00215 L 210.7326 33.00215 L 214.438681 15.529223 L 218.032161 15.529223 L 217.704146 18.765313 L 217.797165 18.765313 C 219.319743 16.390875 221.16544 15.201208 223.344048 15.201208 C 224.783398 15.201208 225.894733 15.63693 226.678053 16.508373 C 227.466269 17.379816 227.857929 18.618441 227.857929 20.234038 C 227.857929 20.992879 227.740431 21.932863 227.500539 23.049093 Z M 237.389951 33.310583 C 235.294571 33.310583 233.688765 32.752467 232.572535 31.631341 C 231.451408 30.51511 230.888397 28.933783 230.888397 26.892256 C 230.888397 24.684273 231.280057 22.672121 232.053585 20.86559 C 232.832009 19.059058 233.923761 17.66377 235.328841 16.679724 C 236.733921 15.695679 238.339726 15.201208 240.141362 15.201208 C 242.036017 15.201208 243.744633 15.578181 245.267211 16.327231 L 243.827861 19.906023 C 243.26485 19.666131 242.71163 19.46051 242.173098 19.279367 C 241.62967 19.10312 241.017701 19.014997 240.3274 19.014997 C 239.44127 19.014997 238.643263 19.347907 237.928484 20.013729 C 237.213704 20.684447 236.660485 21.595056 236.259033 22.760244 C 235.857582 23.920537 235.656856 25.168953 235.656856 26.500596 C 235.656856 27.499329 235.891852 28.253274 236.36674 28.757536 C 236.841627 29.261798 237.497658 29.516377 238.344622 29.516377 C 239.137733 29.516377 239.872096 29.393984 240.547709 29.149196 C 241.223322 28.904409 241.923414 28.600872 242.638194 28.233691 L 242.638194 32.076854 C 241.056867 32.89934 239.309085 33.310583 237.389951 33.310583 Z M 246.530314 15.529223 L 251.142109 15.529223 L 252.013552 23.626792 C 252.160425 24.894791 252.233861 26.422264 252.233861 28.204317 L 252.32688 28.204317 C 252.537398 27.67068 252.767498 27.04892 253.017181 26.334141 C 253.266864 25.624257 253.604671 24.821354 254.030601 23.935224 L 258.094072 15.529223 L 263.205234 15.529223 L 252.576564 35.498982 C 250.735762 38.960277 248.219347 40.688476 245.032215 40.688476 C 244.092231 40.688476 243.328494 40.590561 242.736109 40.389835 L 242.736109 36.639692 C 243.441097 36.776773 244.048169 36.845313 244.547536 36.845313 C 245.423875 36.845313 246.192507 36.59563 246.853433 36.091368 C 247.514359 35.592002 248.126328 34.818473 248.689339 33.765887 L 249.095686 33.00215 Z M 269.158464 40.688476 C 268.071608 40.688476 267.165895 40.556291 266.436428 40.296816 L 266.436428 36.517298 C 267.072875 36.732711 267.670157 36.845313 268.233168 36.845313 C 268.869615 36.845313 269.42773 36.634796 269.907514 36.218657 C 270.387297 35.802519 270.725104 35.126905 270.920934 34.186922 L 274.108066 19.108016 L 271.562277 19.108016 L 272.032269 16.84618 L 274.891386 15.529223 L 275.170444 14.217163 C 275.60127 12.23928 276.320945 10.795035 277.334365 9.884425 C 278.35268 8.96892 279.777343 8.513616 281.608353 8.513616 C 282.974267 8.513616 284.198204 8.77309 285.280165 9.282248 L 284.031749 12.782708 C 283.312074 12.459589 282.621773 12.298029 281.951056 12.298029 C 281.35867 12.298029 280.878887 12.503651 280.516601 12.919789 C 280.14942 13.340824 279.904633 13.884252 279.782239 14.564761 L 279.591305 15.529223 L 283.013433 15.529223 L 282.249696 19.108016 L 278.812881 19.108016 L 275.454397 34.891909 C 274.651494 38.754655 272.551218 40.688476 269.158464 40.688476 Z M 294.376466 22.123797 C 294.376466 20.072478 293.632312 19.049267 292.139108 19.049267 C 291.360684 19.049267 290.660592 19.362595 290.038832 19.999042 C 289.417072 20.635489 288.91281 21.565682 288.52115 22.794515 C 288.134386 24.028243 287.938556 25.291346 287.938556 26.593615 C 287.938556 28.52254 288.71698 29.482107 290.28362 29.482107 C 291.062044 29.482107 291.767032 29.163884 292.388792 28.52254 C 293.015447 27.881197 293.505022 26.990171 293.852621 25.849462 C 294.200219 24.708752 294.376466 23.470128 294.376466 22.123797 Z M 299.110655 22.123797 C 299.110655 24.321988 298.743473 26.270496 298.009111 27.969321 C 297.274749 29.668146 296.212371 30.980206 294.826875 31.915294 C 293.441378 32.845487 291.796406 33.310583 289.89196 33.310583 C 287.860224 33.310583 286.234836 32.698614 285.025586 31.474677 C 283.81144 30.25074 283.204367 28.625351 283.204367 26.593615 C 283.204367 24.375841 283.576444 22.397959 284.320598 20.664864 C 285.064752 18.931769 286.141816 17.585438 287.546896 16.630767 C 288.951976 15.680992 290.596948 15.201208 292.486707 15.201208 C 294.528234 15.201208 296.138935 15.818073 297.328602 17.046906 C 298.513373 18.275738 299.110655 19.969668 299.110655 22.123797 Z M 313.670611 15.201208 C 314.287475 15.201208 314.786842 15.259957 315.173606 15.37256 L 314.140603 19.906023 C 313.670611 19.739567 313.151662 19.65634 312.578859 19.65634 C 311.369609 19.65634 310.312128 20.131227 309.396623 21.085898 C 308.486013 22.040569 307.839774 23.406483 307.45301 25.188536 L 305.798247 33.00215 L 301.093433 33.00215 L 304.794619 15.529223 L 308.392994 15.529223 L 308.060083 18.765313 L 308.157998 18.765313 C 309.685472 16.390875 311.526273 15.201208 313.670611 15.201208 Z M 327.892761 33.00215 L 323.124302 33.00215 L 327.95151 10.158587 L 340.670665 10.158587 L 339.828596 14.124144 L 331.892588 14.124144 L 330.653963 20.013729 L 338.046544 20.013729 L 337.170205 23.969494 L 329.78252 23.969494 Z M 345.625163 33.310583 C 344.092793 33.310583 342.888439 32.757363 342.007204 31.646028 C 341.12597 30.539589 340.685352 28.982741 340.685352 26.985275 C 340.685352 24.924165 341.062325 22.956074 341.811374 21.085898 C 342.560424 19.215722 343.544469 17.766581 344.763511 16.743369 C 345.982552 15.715262 347.323987 15.201208 348.782921 15.201208 C 349.791445 15.201208 350.662888 15.421517 351.39725 15.857239 C 352.131613 16.297856 352.704415 16.934303 353.110762 17.766581 L 353.233156 17.766581 L 354.124182 15.529223 L 357.751932 15.529223 L 354.031163 33.00215 L 350.452371 33.00215 L 350.672679 30.735419 L 350.609035 30.735419 C 349.213746 32.453827 347.554088 33.310583 345.625163 33.310583 Z M 347.47086 29.516377 C 348.185639 29.516377 348.880835 29.168779 349.546657 28.468687 C 350.212479 27.768595 350.751011 26.823716 351.157359 25.634049 C 351.563706 24.439486 351.764431 23.088259 351.764431 21.580369 C 351.764431 20.836215 351.563706 20.224246 351.162254 19.744463 C 350.760803 19.259784 350.232062 19.014997 349.576032 19.014997 C 348.871044 19.014997 348.195431 19.391969 347.554088 20.141019 C 346.912745 20.890068 346.403587 21.87901 346.021718 23.107842 C 345.644746 24.336675 345.453811 25.555717 345.453811 26.764967 C 345.453811 27.680472 345.625163 28.370772 345.977657 28.826077 C 346.325255 29.286277 346.824621 29.516377 347.47086 29.516377 Z M 373.560304 33.00215 L 368.860386 33.00215 L 370.999828 22.794515 C 371.166283 22.089527 371.249511 21.467767 371.249511 20.939026 C 371.249511 19.65634 370.6865 19.014997 369.560478 19.014997 C 368.605807 19.014997 367.734364 19.607382 366.951044 20.797049 C 366.17262 21.986716 365.555755 23.641479 365.110242 25.766234 L 363.577873 33.00215 L 358.873058 33.00215 L 362.57914 15.529223 L 366.17262 15.529223 L 365.844605 18.765313 L 365.937624 18.765313 C 367.460202 16.390875 369.305899 15.201208 371.484507 15.201208 C 372.923857 15.201208 374.035192 15.63693 374.818512 16.508373 C 375.606727 17.379816 375.998387 18.618441 375.998387 20.234038 C 375.998387 20.992879 375.880889 21.932863 375.640998 23.049093 Z M 373.560304 33.00215 " stroke="#ffffff" stroke-width="2.2" stroke-opacity="1" stroke-miterlimit="4"/><g clip-path="url(#ed75596837)"><path fill="#242424" d="M 61.417969 147.054688 C 61.417969 141.148438 56.589844 136.316406 50.679688 136.316406 C 56.589844 136.316406 61.417969 131.484375 61.417969 125.574219 C 61.417969 131.484375 66.25 136.316406 72.160156 136.316406 C 66.25 136.316406 61.417969 141.148438 61.417969 147.054688 Z M 61.417969 147.054688 " fill-opacity="1" fill-rule="nonzero"/></g><g clip-path="url(#d2a0d01179)"><path fill="#ffde59" d="M 61.417969 143.488281 C 61.417969 139.539062 58.191406 136.316406 54.246094 136.316406 C 58.191406 136.316406 61.417969 133.089844 61.417969 129.144531 C 61.417969 133.089844 64.644531 136.316406 68.589844 136.316406 C 64.644531 136.316406 61.417969 139.539062 61.417969 143.488281 Z M 61.417969 143.488281 " fill-opacity="1" fill-rule="nonzero"/></g><g clip-path="url(#780bc3d758)"><path fill="#000000" d="M 306.488281 210.890625 C 306.488281 198.921875 296.703125 189.140625 284.738281 189.140625 C 296.703125 189.140625 306.488281 179.355469 306.488281 167.390625 C 306.488281 179.355469 316.269531 189.140625 328.238281 189.140625 C 316.269531 189.140625 306.488281 198.921875 306.488281 210.890625 Z M 306.488281 210.890625 " fill-opacity="1" fill-rule="nonzero"/></g></svg>