<?xml version="1.0" standalone="no"?>
<!DOCTYPE svg PUBLIC "-//W3C//DTD SVG 20010904//EN"
 "http://www.w3.org/TR/2001/REC-SVG-20010904/DTD/svg10.dtd">
<svg version="1.0" xmlns="http://www.w3.org/2000/svg"
 width="2083.000000pt" height="2083.000000pt" viewBox="0 0 2083.000000 2083.000000"
 preserveAspectRatio="xMidYMid meet">

<g transform="translate(0.000000,2083.000000) scale(0.100000,-0.100000)"
fill="#000000" stroke="none">
<path d="M3402 13920 c-3 -44 -22 -79 -52 -95 -22 -12 -22 -12 15 -19 20 -4
39 -5 41 -3 3 3 3 38 1 78 -1 41 -4 58 -5 39z"/>
<path d="M3406 13765 c-61 -268 -229 -442 -481 -496 l-60 -13 52 -8 c179 -27
350 -159 432 -331 21 -45 42 -94 45 -109 6 -26 4 -28 -26 -29 -29 0 -30 -1
-11 -9 12 -5 26 -17 32 -27 10 -17 10 -17 11 0 0 10 4 16 8 13 5 -3 14 18 21
47 56 224 252 406 481 445 l45 8 -72 17 c-224 51 -411 239 -457 457 -12 58
-14 62 -20 35z m50 -283 c53 -108 160 -190 282 -215 l57 -11 -53 -8 c-150 -22
-287 -155 -318 -308 l-11 -55 -11 53 c-35 157 -169 289 -319 310 l-48 8 69 17
c153 38 263 152 298 310 l12 52 7 -48 c4 -27 20 -74 35 -105z"/>
<path d="M1292 12768 c8 -7 20 -22 26 -33 10 -18 11 -17 12 13 0 28 -3 32 -27
32 -23 0 -25 -2 -11 -12z"/>
<path d="M2500 12770 c0 -5 7 -7 15 -4 8 4 15 8 15 10 0 2 -7 4 -15 4 -8 0
-15 -4 -15 -10z"/>
<path d="M11922 12538 l2 -243 6 220 c4 121 7 221 8 223 1 1 17 11 35 22 l32
20 -42 0 -43 0 2 -242z"/>
<path d="M8163 11973 c9 -2 25 -2 35 0 9 3 1 5 -18 5 -19 0 -27 -2 -17 -5z"/>
<path d="M11920 11823 l0 -43 38 0 c37 1 37 1 12 15 -14 7 -30 26 -37 42 -12
28 -12 28 -13 -14z"/>
<path d="M17020 11623 c-1 -154 -5 -254 -15 -308 -8 -44 -15 -82 -15 -84 0 -2
9 4 20 14 15 14 23 15 34 6 12 -10 13 -6 5 26 -6 21 -9 158 -9 306 1 179 -3
267 -10 267 -6 0 -10 -76 -10 -227z"/>
<path d="M4510 11611 l0 -65 36 35 c34 33 35 34 12 39 -12 3 -28 17 -35 30
-11 23 -13 18 -13 -39z"/>
<path d="M15893 11646 l-23 -13 25 -23 25 -23 0 36 c0 20 -1 37 -2 36 -2 -1
-13 -7 -25 -13z"/>
<path d="M18140 11600 l0 -54 36 35 c34 33 35 34 12 37 -13 2 -29 11 -35 20
-11 13 -13 7 -13 -38z"/>
<path d="M13645 11370 c-20 -22 -61 -27 -68 -7 -3 6 -6 -16 -6 -50 -1 -35 1
-63 3 -63 1 0 24 32 50 70 47 71 53 86 21 50z"/>
<path d="M6807 11209 c-9 -5 -22 -7 -27 -4 -6 3 -11 1 -11 -4 -3 -20 -4 -26
-10 -36 -4 -5 -10 -32 -14 -59 -17 -122 -97 -289 -185 -390 -140 -159 -304
-253 -508 -290 -43 -8 -64 -15 -49 -15 49 -2 167 -32 238 -61 127 -53 247
-144 341 -260 77 -96 151 -266 165 -377 6 -53 23 -64 23 -15 0 51 41 176 86
262 123 239 338 395 611 444 43 8 65 15 48 15 -52 2 -192 39 -259 70 -229 104
-411 321 -471 563 l-17 67 31 51 c17 27 30 50 28 50 -1 0 -10 -5 -20 -11z
m-33 -368 c17 -127 153 -304 281 -365 68 -33 144 -55 195 -57 27 -1 23 -3 -20
-10 -130 -19 -236 -75 -325 -171 -64 -69 -121 -176 -131 -247 -10 -70 -16 -71
-31 0 -20 98 -67 185 -142 260 -92 92 -226 157 -331 160 -24 0 -12 5 38 14
217 39 396 210 435 413 6 33 14 59 18 56 3 -2 9 -26 13 -53z"/>
<path d="M11920 10713 c1 -37 1 -37 14 -14 7 13 24 30 37 37 23 13 23 13 -13
14 -37 0 -38 -1 -38 -37z"/>
<path d="M13323 10732 c10 -10 17 -29 18 -43 l1 -24 8 25 c15 48 12 60 -17 60
-25 0 -25 -1 -10 -18z"/>
<path d="M13321 10554 c0 -11 3 -14 6 -6 3 7 2 16 -1 19 -3 4 -6 -2 -5 -13z"/>
<path d="M17942 10341 c9 -15 9 -23 -3 -37 -13 -16 -12 -17 11 -11 14 3 61 11
105 18 l80 13 -75 12 c-41 7 -87 15 -102 18 -25 5 -27 4 -16 -13z"/>
<path d="M16045 10345 c-5 -2 -27 -6 -49 -10 -50 -8 -42 -15 39 -30 60 -11 64
-11 51 4 -7 9 -11 22 -9 29 4 11 -10 15 -32 7z"/>
<path d="M7690 10118 c0 -17 3 -19 9 -9 5 7 15 17 22 22 10 6 8 9 -8 9 -17 0
-23 -6 -23 -22z"/>
<path d="M7786 9782 c10 -18 39 -51 63 -75 l45 -42 -40 45 c-21 25 -50 59 -62
75 l-23 30 17 -33z"/>
<path d="M8288 9503 c7 -3 16 -2 19 1 4 3 -2 6 -13 5 -11 0 -14 -3 -6 -6z"/>
<path d="M8463 9503 c9 -2 23 -2 30 0 6 3 -1 5 -18 5 -16 0 -22 -2 -12 -5z"/>
<path d="M6811 9330 c0 -55 3 -69 9 -52 9 21 20 26 48 23 15 -2 -2 31 -39 80
l-19 24 1 -75z"/>
<path d="M17021 9383 c-20 -4 -22 -9 -16 -31 4 -15 9 -159 12 -319 3 -177 9
-293 14 -293 6 0 9 109 8 288 0 158 2 304 6 325 4 20 6 36 4 36 -2 -1 -15 -4
-28 -6z"/>
<path d="M15892 9037 c-37 -38 -40 -47 -13 -40 12 3 24 -3 35 -18 16 -23 16
-22 16 34 0 31 -1 57 -3 57 -2 0 -17 -15 -35 -33z"/>
<path d="M8478 8623 c7 -3 16 -2 19 1 4 3 -2 6 -13 5 -11 0 -14 -3 -6 -6z"/>
<path d="M14708 8623 c6 -2 18 -2 25 0 6 3 1 5 -13 5 -14 0 -19 -2 -12 -5z"/>
</g>
</svg>
